<svg width="160" height="160" viewBox="0 0 160 160" fill="none" xmlns="http://www.w3.org/2000/svg">
<circle cx="80" cy="80" r="80" fill="white"/>
<path d="M141.34 64.3876L112.602 35.7321C109.891 33.0287 106.637 31.9474 102.842 31.9474C99.0459 31.9474 95.7925 33.5694 93.0813 35.7321L85.4901 43.3014L71.9343 29.7847C69.2232 27.0813 65.9698 26 62.1741 26C58.3785 26 55.1251 27.622 52.414 29.7847L18.2534 63.8469C16.6267 67.0909 15 70.3349 15 74.1196C15 77.9043 16.6267 81.1483 18.7956 83.8517L70.3076 135.215C73.0188 137.919 76.2722 139 80.0678 139C83.8634 139 87.1168 137.378 89.8279 135.215L141.34 83.8517C146.22 78.445 146.22 69.7943 141.34 64.3876ZM71.3921 100.072C69.7654 100.072 68.6809 100.612 67.5965 101.694C65.4275 103.856 65.4275 107.1 67.5965 109.263L83.8634 125.483L81.6945 127.646C81.6945 128.187 80.61 128.187 80.0678 128.187C79.5255 128.187 78.4411 127.646 77.8989 127.105L26.3869 75.7416C25.3024 74.6603 25.3024 73.0383 26.3869 71.9569L60.5474 37.8947C61.0897 37.3541 61.6319 37.3541 62.7164 37.3541C63.8008 37.3541 64.3431 37.8947 64.8853 37.8947L78.4411 51.4115L73.561 56.2775C70.8498 58.9809 69.7654 62.2249 69.7654 66.0096C69.7654 69.7943 71.3921 73.0383 73.561 75.7416L79.5255 81.689C82.2367 84.3923 85.4901 85.4737 89.2857 85.4737C93.0813 85.4737 96.3347 83.8517 99.0459 81.689L103.926 76.823L117.482 90.3397C118.566 91.4211 118.566 93.0431 117.482 94.1244L115.313 96.2871L109.891 90.3397C108.806 89.2584 107.722 88.7177 106.095 88.7177C104.468 88.7177 103.384 89.2584 102.299 90.3397C101.215 91.4211 100.673 92.5024 100.673 94.1244C100.673 95.7464 101.215 96.8277 102.299 97.9091L107.179 102.775L102.842 106.56L92.5391 95.7464C91.4546 94.6651 90.3702 94.1244 88.7435 94.1244C87.1168 94.1244 86.0323 94.6651 84.9479 95.7464C83.8634 96.8278 83.3212 97.9091 83.3212 99.5311C83.3212 101.153 83.8634 102.234 84.9479 103.316L95.2503 113.589L91.4546 117.373L75.1877 101.153C74.1032 100.612 73.0188 100.072 71.3921 100.072ZM106.637 64.3876C105.553 63.3062 104.468 62.7655 102.842 62.7655C101.215 62.7655 100.13 63.3062 99.0459 64.3876L90.3702 73.0383C89.8279 73.579 89.2857 73.5789 88.2013 73.5789C87.659 73.5789 86.5746 73.0383 86.0323 73.0383L80.0678 67.0909C79.5255 66.5502 79.5255 66.0096 79.5255 64.9282C79.5255 63.8469 80.0678 63.3062 80.0678 62.7655L100.13 42.7608C100.673 42.2201 101.215 42.2201 102.299 42.2201C103.384 42.2201 103.926 42.7608 104.468 42.7608L133.206 71.4163C134.291 72.4976 134.291 73.0383 134.291 74.1196C134.291 75.201 133.749 75.7416 133.206 76.2823L125.615 83.8517L106.637 64.3876Z" fill="#424242"/>
</svg>
